<?xml version="1.0" encoding="UTF-8"?><!DOCTYPE svg PUBLIC "-//W3C//DTD SVG 1.1//EN" "http://www.w3.org/Graphics/SVG/1.1/DTD/svg11.dtd"><svg xmlns="http://www.w3.org/2000/svg"><symbol id="campaigns" viewBox="0 0 513 513">
<path class="lexicon-icon-outline" d="M64,256.5C64,150.355,150.355,64,256.5,64C362.6445,64,449,150.355,449,256.5h64
	c0-68.5137-26.6807-132.9263-75.127-181.3726C389.4268,26.6807,325.0137,0,256.5,0S123.5737,26.6807,75.1274,75.1274
	C26.6807,123.5737,0,187.9863,0,256.5s26.6807,132.9268,75.1274,181.373C123.5737,486.3193,187.9863,513,256.5,513v-64
	C150.355,449,64,362.6445,64,256.5z"/>
<path class="lexicon-icon-outline" d="M175.1133,256.5c0-44.877,36.5098-81.3867,81.3867-81.3867s81.3867,36.5098,81.3867,81.3867h64
	c0-80.1665-65.2197-145.3867-145.3867-145.3867c-80.1665,0-145.3867,65.2202-145.3867,145.3867
	c0,80.167,65.2202,145.3867,145.3867,145.3867v-62.2201v-1.7799C211.623,337.8867,175.1133,301.377,175.1133,256.5z"/>
<circle class="lexicon-icon-outline" cx="256.5" cy="256.0876" r="32"/>
<path class="lexicon-icon-body" d="M398.5258,352.8588H416.5c17.9605,0,32.4562-14.4957,32.3855-32.3855c0-17.9605-14.4957-32.4562-32.3855-32.3854h-95.6145
	c-8.6267,0-16.8291,3.3941-22.9103,9.4752c-6.0811,6.0811-9.4752,14.2835-9.4752,22.9102l-0.0001,96.141
	c-0.0001,17.9604,14.4957,32.4562,32.3855,32.3854c8.9095,0,17.0413-3.6063,22.9103-9.4752
	c5.869-5.869,9.4752-14.0007,9.4752-22.9102v-18.5007l104.5874,104.4995c12.5158,12.5158,32.739,12.5158,45.2548,0
	c12.5158-12.5158,12.5158-32.7391,0-45.2549L398.5258,352.8588z"/>
</symbol><symbol id="promotions" viewBox="0 0 474.75 461.8813">
<path class="lexicon-icon-outline" d="M176.2967,109.8813H44c-24.2617,0-44,19.7383-44,44v104c0,24.2617,19.7383,44,44,44h83.3888
	c-2.0071,9.124-3.0748,18.5963-3.0748,28.3145c0,72.6113,59.0742,131.6855,131.686,131.6855
	c57.1432,0,105.8941-36.5903,124.075-87.5684l94.675,33.6816V0L176.2967,109.8813z M64,237.8813v-64h86h10v64h-10H64z M256,397.8813
	c-37.3223,0-67.686-30.3633-67.686-67.6855c0-7.9627,1.3928-15.6038,3.9297-22.7057l127.5266,45.3689
	C310.4283,379.0666,285.3753,397.8813,256,397.8813z M410.75,317.2974l-24.8701-8.8478l-87.8571-31.2562l-41.2177-14.6636
	L224,250.8589v-48.4098V160.518l186.75-68.7553V317.2974z"/>
</symbol><symbol id="reports" viewBox="0 0 512 480">
<path class="lexicon-icon-outline" d="M95.0712,160H33.0556C14.875,160,0,174.5961,0,192.4358v255.1284C0,465.4039,14.875,480,33.0556,480h62.0156
	c18.1805,0,33.0555-14.5961,33.0555-32.4359V192.4358C128.1268,174.5961,113.2518,160,95.0712,160z"/>
<path class="lexicon-icon-outline" d="M287.0078,0h-62.0156c-18.1806,0-33.0556,14.875-33.0556,33.0556v413.8888c0,18.1806,14.875,33.0556,33.0556,33.0556
	h62.0156c18.1806,0,33.0556-14.875,33.0556-33.0556V33.0556C320.0634,14.875,305.1884,0,287.0078,0z"/>
<path class="lexicon-icon-outline" d="M478.9445,96h-62.0156c-18.1806,0-33.0556,14.5961-33.0556,32.4358v319.1284c0,17.8397,14.875,32.4359,33.0556,32.4359
	h62.0156C497.125,480,512,465.4039,512,447.5641V128.4358C512,110.5961,497.125,96,478.9445,96z"/>
</symbol><symbol id="user-segments" viewBox="0 0 512.5 512.5">
<path class="lexicon-icon-outline" d="M256.5,63.5h-32c-59.9663,0-116.3433,23.3521-158.7456,65.7544S0,228.0337,0,288
	c0,59.9658,23.3521,116.3428,65.7544,158.7451C108.1572,489.1475,164.5337,512.5,224.5,512.5
	c59.9658,0,116.3428-23.3525,158.7451-65.7549S449,347.9658,449,288v-32H256.5V63.5z M381.7959,320
	c-14.873,73.2217-79.75,128.5-157.2959,128.5C136,448.5,64,376.5,64,288c0-77.5454,55.2788-142.4229,128.5-157.2959V320H381.7959z"/>
<path class="lexicon-icon-body" d="M352,0h-32v192.5h192.5v-32C512.5,72,440.5,0,352,0z"/>
</symbol></svg>